<svg height="512pt" viewBox="0 0 512 511" width="512pt" xmlns="http://www.w3.org/2000/svg"><path d="m193.382812 59.488281h79.710938c13.121094 13.121094 23.992188 23.996094 34.375 34.375h-148.460938c10.382813-10.378906 21.257813-21.253906 34.375-34.375zm0 0" fill="#ffe477"/><path d="m159.007812 93.863281h148.460938c16.285156 16.289063 31.355469 31.355469 51.941406 51.941407v311.597656h-252.34375v-311.597656c20.589844-20.585938 35.65625-35.652344 51.941406-51.941407zm0 0" fill="#ffb655"/><path d="m237.792969 157.097656h50.886719v238.703125h-50.886719zm0 0" fill="#ff8243"/><path d="m307.46875 93.863281h68.457031l-16.515625 51.941407zm0 0" fill="#ffe477"/><path d="m93.117188 504.898438h280.246093v-33.726563c-5.378906-5.375-8.390625-8.390625-13.769531-13.769531h-252.710938c-5.378906 5.378906-8.390624 8.394531-13.769531 13.769531v33.726563zm0 0" fill="#79787d"/><path d="m57.910156 353.875h49.15625v34.179688h-65.269531c-13.394531-13.394532-20.902344-20.90625-34.296875-34.300782v-169.105468c13.394531-13.394532 20.902344-20.90625 34.296875-34.300782h65.269531v34.179688h-49.15625c-6.339844 6.335937-9.894531 9.890625-16.230468 16.230468v136.886719c6.335937 6.335938 9.890624 9.890625 16.230468 16.230469zm0 0" fill="#ffe477"/><path d="m207.800781 157.097656h50.882813v238.703125h-50.882813zm0 0" fill="#bddbff"/><path d="m223.378906 59.488281h-29.996094c-13.117187 13.121094-23.992187 23.996094-34.375 34.375h29.996094zm0 0" fill="#ffb655"/><path d="m189.003906 93.863281h-29.996094c-16.285156 16.289063-31.351562 31.355469-51.941406 51.941407v311.597656h29.996094v-311.597656c20.585938-20.585938 35.652344-35.652344 51.941406-51.941407zm0 0" fill="#ff8243"/><path d="m337.460938 93.863281h-29.992188l51.941406 51.941407 7.234375-22.757813zm0 0" fill="#ffb655"/><path d="m136.875 457.402344h-29.992188c-5.378906 5.378906-8.390624 8.394531-13.769531 13.769531v33.726563h29.996094v-33.726563c5.375-5.375 8.390625-8.390625 13.765625-13.769531zm0 0" fill="#575759"/><path d="m37.492188 353.753906v-169.105468c13.394531-13.394532 20.90625-20.90625 34.300781-34.300782h-29.996094c-13.394531 13.394532-20.902344 20.90625-34.296875 34.300782v169.105468c13.394531 13.394532 20.902344 20.90625 34.296875 34.300782h29.996094c-13.394531-13.394532-20.90625-20.90625-34.300781-34.300782zm0 0" fill="#ffb655"/><path d="m207.800781 157.097656h29.992188v238.703125h-29.992188zm0 0" fill="#57a4ff"/><path d="m276.199219 51.988281h-85.921875l-90.710938 90.710938v294.710937h14.996094v-288.5l47.550781-47.550781h142.25l47.546875 47.550781v288.496094h15v-290.433594l19.265625-60.609375h-75.601562zm-99.085938 34.375 19.378907-19.375h73.496093l19.378907 19.375zm188.558594 15-9.671875 30.425781-30.429688-30.425781zm0 0"/><path d="m103.777344 449.90625-18.160156 18.160156v44.332032h295.242187v-44.332032l-18.160156-18.160156zm262.085937 47.496094h-265.25v-23.125l9.375-9.375h246.5l9.375 9.375zm0 0"/><path d="m61.015625 192.027344h26.054687v-15h-32.269531l-20.621093 20.625v143.097656l20.621093 20.621094h32.269531v-14.996094h-26.054687l-11.839844-11.835938v-130.675781zm0 0"/><path d="m87.070312 380.554688h-42.167968l-29.90625-29.90625v-162.894532l29.90625-29.910156h42.167968v-14.996094h-48.378906l-38.691406 38.691406v175.320313l38.691406 38.691406h48.378906zm0 0"/><path d="m200.300781 149.601562v253.699219h65.882813v-253.699219zm15 238.703126v-223.707032h35.886719v29.523438h-17.945312v15h17.945312v20.617187h-17.945312v14.996094h17.945312v20.617187h-17.945312v14.996094h17.945312v20.617188h-17.945312v14.996094h17.945312v20.617187h-17.945312v14.996094h17.945312v36.730469zm0 0"/><path d="m397.476562.5v14.996094c54.878907 0 99.527344 44.648437 99.527344 99.527344h14.996094c0-63.148438-51.375-114.523438-114.523438-114.523438zm0 0"/><path d="m397.476562 34.566406v14.996094c36.09375 0 65.460938 29.367188 65.460938 65.460938h14.996094c0-44.363282-36.09375-80.457032-80.457032-80.457032zm0 0"/><path d="m397.476562 68.632812v15c17.308594 0 31.390626 14.082032 31.390626 31.390626h14.996093c0-25.578126-20.808593-46.390626-46.386719-46.390626zm0 0"/><g fill="#fff"><path d="m342.289062 357.941406h-15v-145.554687h15zm0-155.554687h-15v-14.996094h15zm0-24.992188h-15v-15h15zm0 0"/><path d="m353.171875 487.777344h-62.773437v-14.996094h62.773437zm-72.769531 0h-14.996094v-14.996094h14.996094zm-24.996094 0h-14.996094v-14.996094h14.996094zm0 0"/></g></svg>