<?xml version="1.0"?>
<svg xmlns="http://www.w3.org/2000/svg" xmlns:xlink="http://www.w3.org/1999/xlink" version="1.1" id="Layer_1" x="0px" y="0px" viewBox="0 0 512 512" style="enable-background:new 0 0 512 512;" xml:space="preserve" width="512px" height="512px" class=""><g transform="matrix(-1 0 0 1 502 0)"><path style="fill:#DDDCDF;" d="M354.572,512H150.059v-63.111h204.514V512H354.572z" data-original="#DDDCDF"/><g>
	<path style="fill:#CCCCCF;" d="M354.572,512H252.316v-63.111h102.256V512z" data-original="#CCCCCF" class=""/>
	<path style="fill:#CCCCCF;" d="M402.837,280.786h-20.36v-33.391h20.36c6.29,0,11.75-4.043,13.586-10.059l29.079-95.283   c1.327-4.351,0.536-8.942-2.169-12.599c-2.707-3.655-6.868-5.752-11.417-5.752h-49.439V90.311h49.439   c15.241,0,29.184,7.027,38.253,19.275c9.068,12.25,11.718,27.637,7.269,42.214l-29.079,95.283   C442.208,267.243,423.913,280.786,402.837,280.786z" data-original="#CCCCCF" class=""/>
</g><polygon style="fill:#A8DD5E;" points="106.483,291.929 32.449,90.31 122.155,90.31 137.827,280.42 " data-original="#A8DD5E" class=""/><path style="fill:#C3E825;" d="M346.8,472.676H157.832c-28.878,0-52.373-23.494-52.373-52.373V95.458  c0-28.878,23.494-52.373,52.373-52.373h188.967c28.878,0,52.373,23.494,52.373,52.373v324.846  C399.173,449.182,375.678,472.676,346.8,472.676z" data-original="#C3E825" class=""/><path style="fill:#A8DD5E;" d="M346.8,472.676h-94.484V43.085H346.8c28.878,0,52.373,23.494,52.373,52.373v324.846  C399.173,449.182,375.678,472.676,346.8,472.676z" data-original="#A8DD5E" class=""/><path style="fill:#C3E825;" d="M252.316,75.903c-20.926,0-37.951-17.025-37.951-37.953C214.364,17.025,231.39,0,252.316,0  c20.927,0,37.953,17.025,37.953,37.951C290.267,58.878,273.242,75.903,252.316,75.903z" data-original="#C3E825" class=""/><g>
	<path style="fill:#A8DD5E;" d="M252.316,75.903c0-22.47,0-67.837,0-75.903c20.927,0,37.953,17.025,37.953,37.951   C290.267,58.878,273.242,75.903,252.316,75.903z" data-original="#A8DD5E" class=""/>
	<path style="fill:#A8DD5E;" d="M346.8,43.085H157.832c-27.142,0-49.522,20.754-52.117,47.225h293.201   C396.321,63.839,373.94,43.085,346.8,43.085z" data-original="#A8DD5E" class=""/>
</g><path style="fill:#86C37E" d="M346.8,43.085h-94.484V90.31h146.601C396.321,63.839,373.94,43.085,346.8,43.085z" data-original="#86C37E" class="active-path"/></g> </svg>
