<svg height="512pt" viewBox="-115 0 512 512" width="512pt" xmlns="http://www.w3.org/2000/svg"><path d="m191.871094 282.46875v-218.597656c0-35.21875-28.652344-63.871094-63.871094-63.871094s-63.871094 28.652344-63.871094 63.871094v185.480468h15v-185.480468c0-26.945313 21.921875-48.871094 48.871094-48.871094s48.871094 21.925781 48.871094 48.871094v227.328125l3.855468 2.144531c34.492188 19.183594 55.921876 55.589844 55.921876 95.007812 0 59.910157-48.742188 108.648438-108.648438 108.648438s-108.648438-48.738281-108.648438-108.648438c0-39.417968 21.429688-75.824218 55.921876-95.007812l3.855468-2.144531v-21.847657h-15v13.117188c-36.984375 22.347656-59.777344 62.511719-59.777344 105.882812 0 68.179688 55.46875 123.648438 123.648438 123.648438s123.648438-55.46875 123.648438-123.648438c0-43.371093-22.792969-83.535156-59.777344-105.882812zm0 0"/><path d="m166.871094 202v-138.128906c0-21.433594-17.4375-38.871094-38.871094-38.871094s-38.871094 17.4375-38.871094 38.871094v138.128906h15v-138.128906c0-13.160156 10.707032-23.871094 23.871094-23.871094s23.871094 10.710938 23.871094 23.871094v138.128906zm0 0"/><path d="m89.128906 298.375c-35.761718 15.414062-59.4375 51.0625-59.4375 90.320312 0 54.203126 44.097656 98.304688 98.304688 98.304688 54.207031 0 98.308594-44.101562 98.308594-98.304688 0-39.253906-23.675782-74.898437-59.433594-90.316406v-83.878906h-77.742188zm15 10.308594v-79.183594h47.742188v79.1875l4.910156 1.808594c32.609375 12.007812 54.523438 43.433594 54.523438 78.199218 0 45.933594-37.371094 83.304688-83.308594 83.304688-45.933594 0-83.304688-37.371094-83.304688-83.304688 0-34.769531 21.914063-66.195312 54.527344-78.203124zm0 0"/><path d="m0 62.5h49.628906v15h-49.628906zm0 0"/><path d="m17.8125 102.5h31.816406v15h-31.816406zm0 0"/><path d="m17.8125 22.5h31.816406v15h-31.816406zm0 0"/><path d="m0 142.5h49.628906v15h-49.628906zm0 0"/><path d="m17.8125 182.5h31.816406v15h-31.816406zm0 0"/><path d="m0 222.5h49.628906v15h-49.628906zm0 0"/><path d="m17.8125 262.5h31.816406v15h-31.816406zm0 0"/><path d="m247.109375 102.007812-35.109375 35.105469v38.214844h70.214844v-38.214844zm20.105469 58.320313h-40.214844v-17l20.109375-20.109375 20.105469 20.109375zm0 0"/><path d="m212 234.636719 35.109375 35.105469 35.105469-35.105469v-38.214844h-70.214844zm15-23.214844h40.214844v17l-20.105469 20.109375-20.109375-20.109375zm0 0"/><path d="m141.871094 202.328125h-15v-88.457031h15zm0-98.457031h-15v-15h15zm0-25h-15v-15h15zm0 0"/><path d="m127.996094 462v-15c32.152344 0 58.308594-26.15625 58.308594-58.304688 0-8.863281-2.09375-17.773437-6.046876-25.769531l13.441407-6.652343c4.976562 10.054687 7.605469 21.261718 7.605469 32.421874 0 40.417969-32.886719 73.304688-73.308594 73.304688zm47.746094-106.699219c-2.542969-3.640625-5.5-6.988281-8.78125-9.957031l10.058593-11.128906c4.121094 3.726562 7.828125 7.929687 11.019531 12.496094zm-15.777344-15.375c-3.699219-2.433593-7.675782-4.445312-11.820313-5.972656l5.179688-14.074219c5.226562 1.921875 10.238281 4.457032 14.894531 7.523438zm0 0"/></svg>