<svg height="512pt" viewBox="0 0 512 511" width="512pt" xmlns="http://www.w3.org/2000/svg"><path d="m276.199219 51.988281h-85.921875l-90.710938 90.710938v294.710937h14.996094v-288.5l47.550781-47.550781h142.25l47.546875 47.550781v288.496094h15v-290.433594l19.265625-60.609375h-75.601562zm-99.085938 34.375 19.378907-19.375h73.496093l19.378907 19.375zm188.558594 15-9.671875 30.425781-30.429688-30.425781zm0 0"/><path d="m103.777344 449.90625-18.160156 18.160156v44.332032h295.242187v-44.332032l-18.160156-18.160156zm262.085937 47.496094h-265.25v-23.125l9.375-9.375h246.5l9.375 9.375zm0 0"/><path d="m61.015625 192.027344h26.054687v-15h-32.269531l-20.621093 20.625v143.097656l20.621093 20.621094h32.269531v-14.996094h-26.054687l-11.839844-11.835938v-130.675781zm0 0"/><path d="m87.070312 380.554688h-42.167968l-29.90625-29.90625v-162.894532l29.90625-29.910156h42.167968v-14.996094h-48.378906l-38.691406 38.691406v175.320313l38.691406 38.691406h48.378906zm0 0"/><path d="m200.300781 149.601562v253.699219h65.882813v-253.699219zm15 238.703126v-223.707032h35.886719v29.523438h-17.945312v15h17.945312v20.617187h-17.945312v14.996094h17.945312v20.617187h-17.945312v14.996094h17.945312v20.617188h-17.945312v14.996094h17.945312v20.617187h-17.945312v14.996094h17.945312v36.730469zm0 0"/><path d="m397.476562.5v14.996094c54.878907 0 99.527344 44.648437 99.527344 99.527344h14.996094c0-63.148438-51.375-114.523438-114.523438-114.523438zm0 0"/><path d="m397.476562 34.566406v14.996094c36.09375 0 65.460938 29.367188 65.460938 65.460938h14.996094c0-44.363282-36.09375-80.457032-80.457032-80.457032zm0 0"/><path d="m397.476562 68.632812v15c17.308594 0 31.390626 14.082032 31.390626 31.390626h14.996093c0-25.578126-20.808593-46.390626-46.386719-46.390626zm0 0"/><path d="m342.289062 357.941406h-15v-145.554687h15zm0-155.554687h-15v-14.996094h15zm0-24.992188h-15v-15h15zm0 0"/><path d="m353.171875 487.777344h-62.773437v-14.996094h62.773437zm-72.769531 0h-14.996094v-14.996094h14.996094zm-24.996094 0h-14.996094v-14.996094h14.996094zm0 0"/></svg>